REM DIRINDEX 1\2,1\3
REM DIRNAME cjc140,folder01,folder02
TITLE ""
FILE "Track20.mp3" MP3
  TRACK 01 AUDIO
    TITLE "0:"
    INDEX 01 00:00:00
  TRACK 02 AUDIO
    TITLE "3:cjc140_068"
    INDEX 01 00:00:11
  TRACK 03 AUDIO
    TITLE "2:cjc140_069"
    INDEX 01 00:02:02
  TRACK 04 AUDIO
    TITLE "2:cjc140_070"
    INDEX 01 00:08:54
  TRACK 05 AUDIO
    TITLE "2:cjc140_071"
    INDEX 01 00:14:17
  TRACK 06 AUDIO
    TITLE "0:"
    INDEX 01 00:21:74
